<?xml version="1.0" standalone="no"?>
<!DOCTYPE svg PUBLIC "-//W3C//DTD SVG 20010904//EN"
 "http://www.w3.org/TR/2001/REC-SVG-20010904/DTD/svg10.dtd">
<svg version="1.0" xmlns="http://www.w3.org/2000/svg"
 width="460.000000pt" height="460.000000pt" viewBox="0 0 460.000000 460.000000"
 preserveAspectRatio="xMidYMid meet">
<metadata>
Created by potrace 1.14, written by Peter Selinger 2001-2017
</metadata>
<g transform="translate(0.000000,460.000000) scale(0.100000,-0.100000)"
fill="#000000" stroke="none">
<path d="M2337 4358 c-14 -8 -17 -26 -17 -121 0 -62 4 -118 8 -125 6 -9 34
-12 103 -10 l94 3 0 124 c0 106 -2 125 -17 135 -26 16 -42 -6 -48 -64 l-5 -50
-39 55 c-44 60 -54 67 -79 53z m104 -112 l39 -59 0 80 c0 84 5 100 27 82 9 -8
13 -41 13 -120 0 -126 3 -122 -110 -117 l-65 3 -6 105 c-3 58 -1 113 4 124 9
17 11 17 34 -10 13 -16 42 -56 64 -88z"/>
<path d="M2372 4210 c3 -44 3 -45 42 -48 25 -2 36 0 31 7 -3 6 -17 8 -31 5
-18 -5 -24 -2 -24 11 0 14 3 15 15 5 24 -20 17 2 -10 35 l-25 30 2 -45z"/>
<path d="M2108 4338 c-33 -11 -36 -37 -8 -63 15 -13 17 -22 10 -36 -6 -10 -9
-35 -8 -56 l1 -38 6 45 c5 36 10 46 28 48 20 3 19 6 -15 37 -29 28 -34 37 -23
44 20 13 118 24 132 15 8 -4 9 -3 5 4 -9 14 -90 14 -128 0z"/>
<path d="M2640 4344 c-30 -12 -79 -75 -86 -111 -8 -43 14 -91 59 -129 45 -38
135 -31 151 12 11 28 -12 45 -54 38 -79 -13 -120 57 -65 111 24 25 69 33 80
15 9 -15 41 -12 55 6 22 25 -18 56 -77 60 -26 2 -55 1 -63 -2z m105 -16 c33
-15 36 -54 3 -43 -47 17 -100 10 -119 -14 -48 -59 -4 -135 75 -129 45 3 60
-17 30 -39 -42 -30 -113 -9 -144 44 -63 108 43 232 155 181z"/>
<path d="M1986 4304 c-3 -9 -6 -21 -5 -27 0 -7 4 -2 9 11 10 25 23 28 37 10
13 -18 46 -205 39 -223 -3 -8 -1 -15 4 -15 17 0 16 40 -7 155 -8 44 -20 86
-25 93 -14 17 -45 15 -52 -4z"/>
<path d="M2230 4312 c0 -7 -8 -12 -18 -12 -33 0 -33 -13 0 -40 39 -33 33 -56
-17 -66 -32 -6 -36 -10 -33 -33 3 -24 6 -25 46 -23 32 3 44 0 48 -13 10 -24
-4 -32 -69 -40 -53 -6 -58 -5 -66 17 l-10 23 0 -23 c-1 -31 19 -36 92 -26 60
9 62 10 62 39 0 29 -2 30 -47 33 -34 2 -48 7 -48 18 0 8 10 14 24 14 27 0 56
24 56 45 0 7 -8 23 -19 36 -17 22 -17 24 -2 35 9 7 13 16 8 20 -4 4 -7 2 -7
-4z"/>
<path d="M2854 4295 c-3 -14 -4 -29 0 -32 3 -4 6 4 6 16 0 24 26 39 42 23 7
-7 3 -44 -11 -117 -12 -59 -23 -111 -27 -116 -3 -5 -1 -9 4 -9 13 0 44 141 46
205 1 47 0 50 -26 53 -22 3 -29 -2 -34 -23z"/>
<path d="M1800 4277 c-32 -9 -46 -18 -48 -32 -4 -19 -3 -19 10 -3 7 10 33 21
58 24 36 5 48 2 62 -12 20 -23 37 -80 20 -70 -8 4 -10 2 -6 -7 3 -9 -10 -27
-32 -45 -35 -29 -36 -32 -25 -61 14 -32 8 -51 -15 -51 -16 0 -31 33 -40 90 -6
35 -4 41 17 49 16 7 19 10 7 10 -9 1 -26 13 -37 27 -12 15 -21 22 -21 16 0 -6
7 -17 15 -26 12 -12 13 -19 5 -33 -8 -14 -7 -33 7 -78 17 -56 21 -60 48 -60
29 0 30 1 28 44 l-2 45 29 -32 c18 -20 38 -32 55 -32 41 0 42 27 2 68 -27 28
-34 41 -27 52 19 29 11 71 -19 101 -33 32 -29 32 -91 16z m160 -219 c0 -16
-45 -7 -67 14 -23 21 -30 48 -16 62 7 7 83 -62 83 -76z"/>
<path d="M2975 4191 c-67 -105 -78 -131 -57 -138 7 -3 10 1 6 10 -3 8 21 56
54 108 87 138 108 143 114 27 2 -42 8 -70 16 -73 18 -7 15 -35 -4 -35 -12 0
-14 -7 -9 -30 12 -53 -19 -49 -77 11 -28 30 -49 47 -46 39 3 -8 1 -26 -3 -40
-9 -24 -9 -24 6 -5 10 12 19 16 23 10 4 -6 24 -25 44 -44 31 -29 40 -32 53
-21 8 7 15 23 15 36 0 14 6 33 12 44 10 15 10 25 2 38 -7 10 -15 42 -18 72
-11 82 -15 90 -42 90 -20 0 -36 -18 -89 -99z"/>
<path d="M1992 4220 c0 -14 2 -19 5 -12 2 6 2 18 0 25 -3 6 -5 1 -5 -13z"/>
<path d="M2842 4215 c0 -16 2 -22 5 -12 2 9 2 23 0 30 -3 6 -5 -1 -5 -18z"/>
<path d="M1585 4208 c-84 -33 -96 -56 -45 -86 22 -14 27 -21 18 -30 -15 -15
26 -148 48 -156 14 -5 90 16 127 36 12 6 17 18 15 36 -3 29 -24 33 -79 18 -20
-6 -28 -3 -32 9 -4 10 0 18 11 21 35 11 47 22 50 46 2 18 -4 27 -23 36 -25 11
-35 32 -15 32 14 0 13 33 -2 48 -14 14 -11 15 -73 -10z m75 -13 c0 -19 -34
-36 -57 -29 -10 3 5 -7 32 -23 57 -32 62 -50 21 -72 -30 -17 -31 -20 -23 -51
5 -19 7 -19 47 -5 23 8 46 12 51 9 21 -13 6 -36 -33 -53 -85 -37 -84 -37 -106
21 -11 29 -23 61 -27 70 -5 13 0 21 20 30 l26 12 -43 17 c-60 23 -58 47 7 69
64 22 85 24 85 5z"/>
<path d="M1836 4194 c11 -16 20 -22 27 -15 15 15 0 41 -23 41 -20 0 -20 -1 -4
-26z m24 6 c0 -5 -2 -10 -4 -10 -3 0 -8 5 -11 10 -3 6 -1 10 4 10 6 0 11 -4
11 -10z"/>
<path d="M3032 4178 c-7 -7 -12 -16 -12 -21 0 -5 7 -1 16 8 9 9 14 18 12 20
-2 3 -10 -1 -16 -7z"/>
<path d="M2002 4150 c0 -47 11 -83 27 -88 10 -3 11 0 5 9 -5 8 -14 37 -20 64
-11 45 -12 46 -12 15z"/>
<path d="M2826 4125 c-8 -47 -3 -65 17 -65 8 0 8 3 0 11 -6 6 -8 30 -5 55 6
58 -4 57 -12 -1z"/>
<path d="M1389 4120 c-62 -33 -64 -41 -29 -109 16 -34 37 -61 44 -61 16 0 52
42 61 71 9 26 -13 51 -39 47 -15 -2 -20 -9 -18 -23 2 -11 3 -28 3 -38 0 -9 5
-15 11 -11 6 4 8 -1 6 -12 -7 -36 -33 -26 -56 21 -30 62 -28 77 14 100 45 24
70 22 100 -6 13 -12 24 -18 24 -11 0 15 -49 52 -69 52 -9 -1 -32 -9 -52 -20z
m64 -73 c3 -8 2 -20 -3 -27 -6 -10 -11 -8 -19 8 -14 27 -14 32 3 32 8 0 16 -6
19 -13z"/>
<path d="M3058 4093 c7 -3 16 -2 19 1 4 3 -2 6 -13 5 -11 0 -14 -3 -6 -6z"/>
<path d="M1508 4058 c-3 -7 -1 -24 3 -38 6 -22 7 -20 8 13 1 38 -3 47 -11 25z"/>
<path d="M1218 4039 c-11 -6 -18 -22 -18 -39 0 -33 -2 -35 -29 -18 -10 6 -26
8 -35 5 -17 -7 -22 -42 -8 -51 5 -3 8 4 8 16 -1 31 20 33 48 5 l25 -25 3 46
c3 39 6 47 23 47 18 0 20 -8 23 -67 2 -52 6 -66 17 -62 15 6 82 -34 89 -53 3
-8 -15 -23 -44 -38 -27 -13 -51 -29 -55 -35 -10 -16 -42 -12 -49 6 -3 9 -6 41
-6 73 0 55 -1 57 -32 68 l-33 12 28 -22 c23 -19 27 -30 27 -74 0 -107 18 -108
178 -7 13 8 -16 44 -58 72 -48 31 -50 34 -50 80 0 26 -5 53 -12 60 -14 14 -18
14 -40 1z"/>
<path d="M1490 3975 c-7 -8 -16 -13 -20 -10 -5 3 -6 -17 -4 -45 4 -44 3 -50
-14 -50 -12 0 -24 11 -32 30 -7 17 -15 28 -18 26 -8 -9 19 -64 33 -70 8 -3 24
3 37 13 19 16 21 22 11 43 -10 21 -8 28 10 46 11 12 18 24 15 27 -3 3 -11 -1
-18 -10z"/>
<path d="M963 3869 c-29 -22 -53 -46 -53 -52 0 -20 22 -37 48 -37 16 0 23 -5
21 -17 -3 -30 0 -41 16 -56 8 -8 23 -30 33 -48 10 -19 26 -35 35 -37 17 -3 96
47 97 61 0 4 -19 -6 -42 -23 -22 -16 -45 -30 -49 -30 -4 0 -24 25 -44 55 -34
51 -40 85 -15 85 5 0 10 5 10 10 0 6 -17 10 -39 10 -21 0 -44 6 -50 13 -12 15
5 33 66 76 51 34 73 8 31 -36 l-21 -23 42 0 c56 0 66 -23 23 -59 -27 -23 -30
-28 -18 -43 18 -24 29 -23 16 2 -8 16 -6 22 14 35 48 32 40 75 -15 75 -27 0
-28 2 -17 24 13 30 5 56 -19 56 -10 0 -42 -18 -70 -41z"/>
<path d="M1262 3845 c0 -16 2 -22 5 -12 2 9 2 23 0 30 -3 6 -5 -1 -5 -18z"/>
<path d="M1115 3725 c-36 -30 -25 -33 15 -5 30 21 40 18 40 -14 0 -14 3 -17
11 -9 8 8 8 17 0 32 -15 27 -29 26 -66 -4z"/>
<path d="M3928 3633 c4 -30 2 -35 -12 -30 -15 6 -15 4 -1 -22 8 -16 17 -48 21
-72 9 -66 53 -209 64 -209 16 0 11 -26 -7 -42 -10 -9 -58 -25 -108 -37 -143
-34 -209 -53 -220 -61 -5 -4 -19 -10 -30 -12 -15 -3 -17 -5 -5 -9 8 -4 69 8
135 26 66 19 152 40 190 49 70 16 100 38 92 66 -114 393 -128 436 -119 353z"/>
<path d="M705 3619 c-85 -24 -121 -134 -70 -211 41 -61 105 -75 170 -37 36 22
75 82 75 117 0 39 -22 78 -58 103 -45 32 -77 39 -117 28z m101 -30 c42 -26 55
-49 56 -101 1 -49 -24 -86 -76 -112 -52 -26 -97 -15 -136 32 -26 32 -30 43
-26 82 6 61 11 71 49 98 40 28 89 28 133 1z"/>
<path d="M712 3569 c-34 -13 -55 -54 -49 -94 7 -45 23 -60 68 -63 30 -3 41 2
63 28 31 37 32 55 7 96 -20 33 -54 46 -89 33z m71 -26 c29 -34 26 -87 -8 -109
-20 -13 -30 -14 -59 -4 -36 11 -46 26 -46 64 0 54 78 87 113 49z"/>
<path d="M3461 3518 c9 -17 9 -24 -3 -32 -14 -10 -11 -30 24 -156 22 -82 46
-150 55 -157 15 -12 15 -14 0 -31 -18 -20 -69 -36 -227 -73 -52 -12 -103 -28
-112 -36 -9 -8 -22 -12 -27 -8 -6 3 -11 1 -11 -4 0 -16 21 -14 103 10 104 30
206 56 249 63 52 9 71 31 64 71 -8 38 -69 259 -92 328 -9 26 -20 47 -25 47 -6
0 -5 -9 2 -22z"/>
<path d="M3575 3529 c-4 -6 -5 -12 -2 -15 2 -3 7 2 10 11 7 17 1 20 -8 4z"/>
<path d="M3809 3453 c-1 -38 -4 -79 -8 -92 -6 -23 -9 -22 -44 30 -59 87 -66
94 -78 82 -7 -7 -6 -28 5 -71 9 -33 16 -69 16 -80 0 -21 17 -39 26 -29 3 3 -2
30 -11 61 -23 78 -15 88 24 28 35 -55 58 -78 67 -69 4 3 9 41 13 84 l7 78 18
-60 c9 -33 19 -66 21 -72 5 -16 25 -17 25 -1 0 7 -11 49 -25 95 -33 107 -55
113 -56 16z"/>
<path d="M2988 3409 c6 -7 12 -24 12 -37 0 -18 -4 -23 -16 -18 -13 5 -15 2 -9
-11 9 -20 36 -110 67 -220 11 -40 24 -73 29 -73 16 0 9 -39 -8 -48 -10 -5 -52
-17 -93 -26 -110 -25 -218 -56 -248 -72 -26 -14 -26 -14 -4 -14 13 0 78 16
144 35 67 19 143 38 169 41 28 4 55 14 65 25 16 18 16 24 0 96 -41 187 -85
325 -106 331 -12 4 -13 2 -2 -9z"/>
<path d="M3105 3400 c-10 -11 -16 -22 -13 -25 3 -3 13 6 22 20 20 30 16 32 -9
5z"/>
<path d="M3285 3370 c-27 -9 -54 -15 -59 -12 -5 3 -7 -2 -3 -11 3 -9 16 -53
28 -97 20 -73 25 -81 43 -75 12 3 42 11 69 18 67 17 59 27 -10 11 -67 -15 -80
-5 -72 54 1 4 21 13 45 20 24 7 44 17 44 22 0 5 -21 2 -46 -7 -49 -17 -59 -13
-69 27 -6 24 -3 27 44 39 28 7 51 17 51 22 0 11 -3 11 -65 -11z"/>
<path d="M462 3368 c-21 -21 -13 -35 38 -73 28 -20 50 -40 50 -43 0 -9 69 -56
75 -51 4 5 -82 76 -135 114 -31 21 -38 40 -17 47 18 7 38 -2 31 -14 -4 -6 -3
-8 2 -5 6 3 37 -14 69 -39 33 -24 63 -44 66 -44 4 0 14 12 24 26 15 24 19 25
32 11 14 -14 14 -18 -4 -44 -35 -50 -36 -59 -4 -23 33 38 36 67 8 84 -15 9
-22 7 -34 -11 -9 -13 -20 -23 -25 -23 -10 0 -59 33 -106 73 -36 30 -52 33 -70
15z"/>
<path d="M2536 3260 c5 -24 3 -30 -11 -30 -12 0 -15 -5 -10 -17 4 -10 25 -78
47 -152 21 -74 41 -138 44 -143 3 -4 3 -17 -1 -28 -5 -14 -24 -23 -83 -35
-124 -27 -225 -55 -253 -70 -14 -8 -29 -12 -33 -10 -3 3 -2 0 4 -7 7 -8 46 -1
152 30 79 23 162 44 185 48 23 3 50 15 59 25 16 18 16 23 1 72 -9 28 -23 86
-32 127 -20 96 -54 208 -66 215 -5 4 -6 -7 -3 -25z"/>
<path d="M2640 3275 c-6 -8 -10 -19 -8 -26 2 -6 9 0 16 15 13 29 10 33 -8 11z"/>
<path d="M2854 3256 c-17 -8 -50 -17 -72 -21 -23 -4 -42 -11 -42 -16 0 -11 7
-11 46 0 29 8 32 7 42 -23 7 -18 15 -53 18 -79 6 -44 18 -66 30 -54 3 2 -4 38
-16 78 -26 94 -26 96 10 104 17 4 30 11 30 16 0 12 -9 11 -46 -5z"/>
<path d="M448 3210 c29 -4 62 -16 73 -26 25 -22 41 -82 33 -125 -4 -26 -3 -30
5 -19 15 22 13 72 -4 114 -18 43 -63 67 -122 65 -34 -1 -32 -2 15 -9z"/>
<path d="M339 3181 c-16 -16 -29 -38 -29 -48 0 -13 5 -9 19 13 11 18 30 39 42
48 13 9 18 16 10 16 -7 0 -26 -13 -42 -29z"/>
<path d="M393 3155 c-11 -8 -26 -28 -31 -44 -9 -24 -6 -35 14 -65 21 -30 31
-36 60 -36 25 0 42 8 59 26 29 31 31 53 10 93 -22 43 -71 55 -112 26z m85 -12
c35 -30 38 -68 8 -97 -14 -15 -34 -26 -46 -26 -27 0 -70 43 -70 70 0 26 43 70
68 70 11 0 29 -8 40 -17z"/>
<path d="M2070 3152 c14 -28 6 -56 -15 -48 -11 4 -13 1 -5 -12 14 -26 58 -181
66 -232 3 -25 13 -50 22 -57 13 -11 13 -15 -1 -36 -12 -18 -31 -27 -79 -36
-78 -15 -240 -60 -253 -71 -5 -4 -19 -10 -30 -13 -14 -3 -10 -5 11 -6 17 0 83
15 146 34 63 19 139 40 169 46 93 20 94 22 45 201 -18 67 -39 146 -45 173 -7
28 -19 57 -28 65 -14 14 -14 13 -3 -8z"/>
<path d="M2177 3153 c-4 -3 -7 -13 -7 -22 1 -13 3 -13 11 2 11 19 8 33 -4 20z"/>
<path d="M2331 3104 c-17 -14 -31 -32 -31 -39 0 -23 42 -45 85 -45 23 0 46 -5
53 -12 17 -17 15 -45 -4 -52 -25 -9 -72 -7 -79 4 -3 6 -14 10 -23 10 -30 -1
27 -40 58 -40 33 0 80 35 80 60 0 42 -11 50 -64 50 -29 0 -61 6 -71 14 -19 14
-19 15 -1 35 20 22 60 28 71 11 3 -5 13 -10 22 -10 14 0 14 3 -2 20 -25 27
-57 25 -94 -6z"/>
<path d="M311 3060 c-1 -35 36 -90 60 -90 6 0 -2 10 -17 23 -16 14 -30 39 -34
63 l-8 39 -1 -35z"/>
<path d="M4073 3053 c1 -17 -3 -27 -10 -26 -9 2 -8 -10 2 -45 8 -26 27 -94 44
-151 16 -57 36 -108 43 -112 39 -25 -50 -67 -219 -104 -43 -10 -89 -22 -103
-28 -14 -6 -34 -14 -45 -18 -54 -19 38 -7 124 16 52 14 101 25 109 25 8 0 45
9 83 21 85 26 95 40 78 112 -20 89 -50 201 -59 227 -5 14 -14 44 -20 68 -12
47 -30 57 -27 15z"/>
<path d="M1717 3033 c-4 -3 -7 -13 -7 -22 1 -13 3 -13 11 2 11 19 8 33 -4 20z"/>
<path d="M1952 3003 c-5 -10 -15 -35 -22 -56 l-12 -39 -39 38 c-55 54 -61 34
-7 -24 25 -27 49 -63 53 -80 3 -18 11 -32 16 -32 12 0 12 22 0 53 -7 18 -3 41
14 91 13 36 19 66 14 66 -4 0 -12 -8 -17 -17z"/>
<path d="M495 2979 c-35 -18 -36 -19 -10 -14 17 3 37 13 45 21 18 18 14 17
-35 -7z"/>
<path d="M398 2963 c7 -3 16 -2 19 1 4 3 -2 6 -13 5 -11 0 -14 -3 -6 -6z"/>
<path d="M224 2947 c-21 -11 -34 -27 -34 -42 0 -5 7 1 16 13 21 30 57 30 52 0
-2 -13 -9 -23 -15 -23 -7 0 -13 -3 -13 -7 0 -5 0 -15 0 -23 0 -8 5 -15 12 -15
6 0 8 3 5 7 -4 3 -1 13 7 22 37 42 15 93 -30 68z"/>
<path d="M3612 2940 c11 -18 11 -23 -4 -34 -15 -11 -13 -24 28 -162 25 -82 47
-156 50 -165 3 -8 -1 -20 -8 -26 -15 -12 -168 -57 -252 -73 -71 -14 -122 -35
-108 -44 6 -3 37 1 69 10 32 9 114 29 182 45 68 16 130 34 138 41 10 8 13 24
10 47 -16 124 -85 372 -106 379 -10 3 -10 0 1 -18z"/>
<path d="M3714 2945 c-10 -26 1 -35 13 -10 6 14 7 25 2 25 -5 0 -12 -7 -15
-15z"/>
<path d="M3950 2916 c-5 -15 -10 -33 -10 -41 0 -26 -20 -26 -53 -1 -45 35 -71
33 -31 -2 17 -15 39 -32 49 -37 16 -10 17 -15 5 -50 -7 -22 -20 -49 -29 -59
-13 -16 -14 -18 -1 -14 8 2 24 23 36 47 l21 43 35 -31 c36 -31 58 -39 58 -21
0 5 -6 13 -14 17 -7 4 -28 20 -45 36 l-33 27 17 51 c18 52 13 82 -5 35z"/>
<path d="M293 2885 c-20 -19 -33 -35 -27 -35 6 0 21 11 34 25 17 18 34 25 61
25 47 0 62 -19 62 -77 0 -38 -5 -50 -27 -70 -18 -15 -22 -23 -12 -23 9 0 22
10 30 23 48 78 14 167 -64 167 -11 0 -37 -16 -57 -35z"/>
<path d="M181 2867 c-1 -33 38 -77 68 -77 11 0 27 -13 38 -30 9 -16 24 -30 33
-29 10 0 11 2 2 6 -19 7 -44 62 -38 81 5 13 3 13 -9 -2 -13 -17 -18 -17 -45
-6 -19 8 -32 22 -36 39 -10 43 -12 47 -13 18z"/>
<path d="M990 2851 c-96 -23 -165 -51 -222 -90 -25 -17 -51 -31 -56 -31 -6 0
-40 -25 -76 -56 -61 -52 -156 -176 -171 -224 -4 -11 -11 -18 -16 -15 -5 3 -6
-1 -2 -10 3 -10 0 -21 -7 -25 -18 -11 -19 -248 -2 -306 24 -82 155 -248 202
-256 18 -3 15 -11 -29 -77 -27 -40 -57 -97 -66 -127 -9 -30 -21 -54 -27 -54
-6 0 -8 -6 -5 -14 3 -7 1 -18 -5 -24 -5 -5 -10 -49 -10 -98 -2 -164 56 -329
158 -448 44 -52 70 -72 138 -105 159 -78 337 -101 508 -66 130 28 279 92 353
154 27 22 53 41 56 41 4 0 38 37 75 82 125 152 184 351 154 529 -15 89 -62
218 -101 275 -111 163 -258 234 -544 264 -223 23 -312 47 -336 91 -16 31 -3
67 33 85 32 17 40 16 181 -2 33 -5 76 -1 129 11 73 17 84 23 134 73 66 64 76
87 76 173 0 91 -19 122 -128 212 -58 48 -268 68 -394 38z m213 -107 c88 -19
152 -55 172 -95 9 -16 17 -56 18 -88 1 -53 -1 -61 -28 -84 -53 -46 -78 -52
-153 -34 -91 21 -192 32 -192 20 0 -5 -22 -20 -49 -32 -27 -13 -67 -43 -89
-66 -22 -24 -43 -41 -46 -37 -3 3 -6 -14 -6 -37 0 -44 24 -98 62 -142 38 -44
168 -75 398 -94 84 -7 166 -26 254 -58 47 -16 76 -37 132 -92 43 -42 76 -84
80 -101 4 -16 11 -34 16 -41 5 -6 18 -42 29 -80 19 -62 23 -127 17 -278 -1
-33 -19 -86 -53 -160 -39 -82 -141 -189 -220 -231 -171 -90 -196 -97 -330 -96
-229 1 -376 55 -467 172 -23 30 -48 61 -55 67 -6 7 -26 57 -43 110 -44 136
-44 245 0 370 25 72 39 97 83 141 61 63 94 82 139 82 37 -1 57 -13 82 -52 19
-29 38 -138 25 -138 -5 0 -6 -7 -3 -15 4 -8 -7 -41 -22 -73 -39 -78 -41 -174
-4 -246 21 -41 35 -55 84 -80 55 -29 68 -31 161 -31 95 0 104 2 170 35 133 67
184 168 156 308 -13 67 -32 96 -93 140 -52 37 -103 49 -283 66 -104 10 -120
14 -123 30 -4 17 2 18 80 11 102 -10 149 -8 161 4 16 16 -2 31 -36 31 -18 0
-84 7 -147 15 -101 13 -126 20 -212 62 -53 27 -94 45 -91 41 2 -5 -1 -8 -6 -8
-19 0 -12 -18 19 -52 40 -44 17 -50 -47 -13 -64 38 -128 109 -166 185 -31 63
-32 68 -32 195 0 129 0 130 34 190 47 83 89 129 168 186 70 51 117 70 224 94
86 18 146 18 232 -1z m55 -1104 c116 -15 139 -40 157 -171 6 -42 4 -50 -23
-80 -34 -39 -119 -74 -160 -66 -91 18 -150 48 -168 87 -24 52 -21 144 7 213
10 25 16 27 63 27 28 0 84 -5 124 -10z"/>
<path d="M1310 2567 c0 -31 -46 -69 -59 -49 -10 17 -220 40 -229 26 -4 -6 -22
-14 -40 -17 -58 -12 -140 -55 -165 -89 -14 -18 -31 -53 -38 -77 -10 -35 -14
-40 -20 -25 -5 12 -8 -3 -8 -39 -1 -58 11 -97 29 -97 6 0 10 31 10 68 0 59 4
75 33 122 60 99 101 113 309 103 117 -5 141 -3 162 11 39 25 51 55 32 74 -15
15 -16 14 -16 -11z"/>
<path d="M1510 1956 c0 -9 -8 -16 -17 -16 -22 0 -9 -11 47 -41 63 -33 77 -46
118 -109 47 -75 69 -143 82 -259 10 -91 9 -105 -10 -165 -12 -36 -36 -84 -54
-108 -17 -24 -40 -56 -49 -71 -10 -15 -26 -31 -35 -34 -9 -4 -35 -21 -57 -39
-81 -65 -151 -89 -348 -119 -21 -3 -35 -10 -32 -16 14 -22 130 -2 275 48 101
35 263 181 302 273 42 100 56 249 33 360 -20 97 -47 150 -109 211 -58 56 -146
107 -146 85z"/>
<path d="M883 1763 c17 -84 16 -113 -7 -203 -17 -68 -25 -88 -28 -70 -3 14 -6
-1 -7 -32 -2 -103 56 -215 141 -273 29 -19 61 -35 71 -35 28 0 17 32 -17 49
-16 7 -50 34 -76 60 -41 39 -50 55 -60 106 -14 69 -8 177 16 271 8 34 14 82
12 106 -3 36 -7 44 -26 46 -21 3 -23 1 -19 -25z"/>
<path d="M881 1664 c0 -11 3 -14 6 -6 3 7 2 16 -1 19 -3 4 -6 -2 -5 -13z"/>
<path d="M1731 1454 c0 -11 3 -14 6 -6 3 7 2 16 -1 19 -3 4 -6 -2 -5 -13z"/>
<path d="M1228 923 c7 -3 16 -2 19 1 4 3 -2 6 -13 5 -11 0 -14 -3 -6 -6z"/>
<path d="M364 2847 c21 -15 12 -47 -14 -47 -25 0 -35 17 -20 35 9 11 7 12 -9
8 -27 -7 -26 -14 2 -42 27 -24 53 -20 62 10 7 21 -10 49 -28 49 -6 0 -3 -6 7
-13z"/>
<path d="M3148 2803 c4 -30 2 -35 -11 -30 -15 6 -15 3 -2 -31 7 -20 28 -89 46
-152 17 -63 37 -118 42 -122 7 -4 5 -14 -4 -29 -17 -24 -86 -47 -223 -75 -81
-16 -171 -53 -131 -54 11 0 52 9 90 20 39 11 117 31 174 44 56 14 109 30 117
37 20 16 18 41 -10 133 -13 45 -27 97 -31 116 -13 74 -38 160 -49 170 -9 6
-11 -1 -8 -27z"/>
<path d="M3260 2825 c-7 -9 -11 -17 -9 -20 3 -2 10 5 17 15 14 24 10 26 -8 5z"/>
<path d="M3424 2791 l-50 -16 22 -82 c12 -45 25 -86 28 -91 6 -11 56 -3 56 8
0 5 -9 6 -19 3 -15 -4 -21 2 -26 26 -3 17 -7 34 -6 38 0 5 23 15 53 25 40 12
46 16 26 17 -15 1 -39 -4 -53 -11 -29 -13 -40 -6 -50 33 -6 23 -3 26 45 39 52
14 77 31 43 29 -10 -1 -41 -8 -69 -18z"/>
<path d="M2790 2695 c-7 -9 -10 -18 -7 -21 3 -3 10 4 17 15 13 25 8 27 -10 6z"/>
<path d="M2255 2621 c-52 -24 -90 -50 -107 -72 -15 -19 -35 -42 -44 -52 -24
-28 -106 -1140 -89 -1210 32 -125 179 -177 288 -101 56 39 76 84 89 201 6 54
13 103 17 110 4 8 46 -4 136 -38 72 -27 166 -58 210 -70 44 -12 86 -27 94 -33
7 -5 39 -10 70 -11 147 -1 232 142 167 280 -13 28 -45 79 -71 113 l-48 64 21
44 c32 64 29 112 -10 170 -39 59 -103 88 -139 66 -12 -8 -24 -11 -27 -8 -3 3
-2 6 2 6 4 0 -3 10 -14 23 -12 12 -49 66 -81 119 -33 53 -73 113 -90 134 -16
20 -29 42 -29 49 0 7 -23 43 -51 81 -28 38 -57 81 -65 95 -13 26 -74 62 -124
72 -16 4 -52 -7 -105 -32z m124 -66 c32 -16 86 -79 116 -136 11 -20 42 -70 69
-111 79 -118 151 -230 174 -270 19 -34 20 -38 4 -38 -15 1 -110 128 -137 184
-9 19 -61 99 -164 255 -20 30 -42 56 -48 59 -26 8 -11 -30 42 -108 30 -44 55
-84 55 -89 0 -4 14 -28 32 -52 47 -65 160 -251 155 -256 -13 -12 -152 -44
-155 -35 -2 6 -12 20 -23 33 -10 12 -19 26 -19 31 0 4 -12 27 -27 50 -16 22
-40 59 -54 81 l-26 39 -7 -63 c-4 -35 -9 -102 -11 -149 -4 -76 -6 -85 -25 -88
-18 -3 -19 1 -15 40 11 92 24 312 18 321 -21 34 -49 -166 -48 -345 0 -21 -5
-28 -20 -28 -36 0 -99 -44 -122 -85 l-23 -40 0 60 c0 107 41 629 52 657 6 15
28 44 49 63 33 29 47 35 85 35 25 0 58 -7 73 -15z m69 -581 l32 -42 -39 -9
-38 -10 -2 61 c-1 36 1 57 7 51 4 -5 23 -29 40 -51z m446 25 c30 -14 48 -55
50 -110 1 -48 -20 -68 -92 -88 -26 -7 -76 -22 -112 -34 -42 -13 -89 -20 -132
-20 -38 1 -68 0 -68 -2 0 -3 167 -65 174 -65 2 0 6 13 9 29 7 32 24 45 75 54
29 6 35 3 50 -24 9 -16 41 -67 70 -111 57 -89 66 -130 31 -148 -12 -7 -25 -8
-32 -2 -7 4 -32 14 -57 21 -50 14 -184 61 -275 96 -33 13 -80 28 -105 35 -25
6 -82 25 -127 42 -47 18 -89 28 -99 24 -28 -11 -6 -23 91 -51 50 -14 153 -47
230 -74 218 -76 331 -111 358 -111 27 0 67 41 67 69 0 17 -34 81 -90 169 -18
29 -30 55 -27 59 8 8 75 -64 83 -90 3 -10 17 -35 30 -54 52 -77 52 -163 -1
-197 -27 -18 -60 -22 -50 -6 4 6 -6 10 -22 10 -15 0 -81 20 -146 45 -66 25
-124 45 -131 45 -7 0 -86 27 -176 60 -90 33 -171 60 -180 60 -31 0 -117 50
-128 76 -16 33 -15 50 4 90 20 41 48 58 129 74 33 6 139 34 235 62 271 78 320
87 364 67z m-764 -301 c0 -14 40 -58 53 -58 5 0 25 -7 44 -16 l34 -17 -6 -116
c-13 -215 -10 -204 -50 -214 -18 -4 -18 -5 3 -6 39 -2 59 30 66 108 3 39 9
103 12 141 5 57 10 70 22 68 9 -2 15 -6 15 -11 0 -4 -4 -62 -7 -130 -4 -67
-10 -130 -13 -141 -3 -12 -1 -16 6 -12 16 10 14 -11 -4 -38 -22 -33 -70 -52
-98 -38 -12 5 -36 15 -54 22 -37 14 -58 56 -57 115 1 120 18 364 26 359 4 -3
8 -10 8 -16z"/>
<path d="M2860 1941 c0 -11 4 -22 10 -26 17 -11 -1 -34 -33 -40 -65 -13 -352
-97 -362 -106 -16 -15 2 -11 208 48 164 47 201 61 209 79 7 15 6 28 -1 43 -15
26 -31 27 -31 2z"/>
<path d="M2926 2652 c-4 -7 38 -170 46 -178 7 -6 108 19 108 27 0 5 -12 4 -26
-1 -14 -6 -36 -10 -49 -10 -24 0 -28 10 -50 127 -7 34 -20 50 -29 35z"/>
<path d="M3515 2625 c-26 -12 -27 -14 -8 -15 28 0 53 10 53 21 0 12 -8 10 -45
-6z"/>
<path d="M4386 1413 c-6 -14 -5 -15 5 -6 7 7 10 15 7 18 -3 3 -9 -2 -12 -12z"/>
<path d="M4313 1272 c-23 -42 -42 -81 -42 -85 0 -5 -8 -16 -18 -25 -19 -18
-73 -97 -73 -108 0 -3 -23 -36 -52 -73 -29 -36 -57 -72 -63 -80 -15 -21 -124
-138 -175 -190 -111 -111 -264 -233 -394 -313 -126 -78 -382 -196 -516 -238
-331 -104 -573 -126 -1043 -95 l-72 4 90 -14 c50 -8 173 -17 275 -21 183 -7
331 4 530 38 72 12 309 85 325 99 5 5 19 9 31 9 13 0 81 29 152 65 71 36 132
65 135 65 4 0 39 22 79 48 40 27 98 65 128 85 30 19 68 49 84 66 17 17 36 31
43 31 17 0 323 306 323 323 0 8 12 24 27 38 14 13 57 71 94 129 38 58 72 110
77 115 12 15 103 198 99 201 -1 2 -21 -32 -44 -74z"/>
<path d="M3723 1198 c-11 -13 -24 -34 -27 -48 -5 -20 -3 -18 11 7 29 56 102
64 118 13 5 -15 15 -20 40 -20 46 0 65 -22 65 -74 0 -49 -19 -72 -69 -82 -25
-5 -37 -2 -56 16 -14 13 -25 32 -25 42 0 11 -7 18 -19 18 -11 0 -29 12 -40 26
-20 26 -21 26 -21 5 0 -16 10 -26 35 -37 19 -8 35 -20 35 -27 0 -26 45 -57 82
-57 53 0 88 37 88 94 0 63 -7 75 -50 82 -26 4 -45 15 -59 35 -27 37 -78 40
-108 7z"/>
<path d="M3756 1151 c-3 -5 0 -21 7 -35 l14 -26 13 24 c7 13 9 29 6 35 -9 13
-33 14 -40 2z m32 -12 c-2 -6 -8 -10 -13 -10 -5 0 -11 4 -13 10 -2 6 4 11 13
11 9 0 15 -5 13 -11z"/>
<path d="M3825 1078 c0 -46 21 -62 50 -38 30 25 15 60 -30 74 -19 5 -21 2 -20
-36z m52 -11 c-2 -7 -13 -13 -25 -15 -16 -3 -22 2 -22 16 0 10 3 22 6 25 10
10 46 -13 41 -26z"/>
<path d="M3564 1032 c-52 -44 -57 -96 -13 -147 34 -38 60 -43 116 -23 22 8 33
18 33 32 0 19 -1 19 -16 -3 -13 -17 -22 -21 -43 -16 -19 4 -22 3 -11 -5 12 -8
11 -10 -7 -10 -13 0 -37 13 -55 29 -80 71 -2 184 97 139 14 -6 25 -15 25 -21
0 -5 11 -18 25 -28 34 -28 42 -79 19 -125 -20 -40 -48 -63 -61 -51 -4 4 -2 17
5 27 16 27 15 35 -3 20 -22 -18 -15 -54 11 -58 28 -4 64 45 71 97 6 46 -13 86
-62 130 -41 36 -97 42 -131 13z"/>
<path d="M3610 982 c0 -9 -9 -23 -21 -30 -16 -11 -18 -16 -9 -28 15 -17 64
-19 77 -1 23 28 21 55 -4 66 -33 15 -43 14 -43 -7z"/>
<path d="M3358 869 c-16 -11 -28 -27 -28 -35 0 -10 8 -6 23 11 13 15 37 28 59
32 31 4 41 1 63 -21 14 -14 23 -31 20 -36 -3 -6 0 -10 8 -10 19 0 40 -43 39
-80 -1 -42 -26 -78 -65 -95 -24 -11 -27 -14 -11 -15 30 0 84 60 91 103 4 30 0
45 -22 79 -59 90 -117 112 -177 67z"/>
<path d="M3410 810 c0 -11 -4 -20 -10 -20 -15 0 -32 -36 -17 -38 7 0 22 -4 34
-7 30 -9 58 41 38 68 -17 24 -45 22 -45 -3z"/>
<path d="M3322 785 c0 -16 2 -22 5 -12 2 9 2 23 0 30 -3 6 -5 -1 -5 -18z"/>
<path d="M3332 736 c4 -25 51 -52 101 -59 32 -5 40 -2 54 19 22 34 11 40 -25
14 -27 -20 -34 -21 -66 -10 -20 6 -43 21 -52 33 -14 20 -15 20 -12 3z"/>
<path d="M3141 727 c-15 -19 -35 -112 -28 -131 4 -10 18 -16 36 -16 18 0 31
-6 35 -16 4 -9 9 -14 12 -11 3 3 1 15 -6 26 -8 16 -17 20 -35 15 -33 -8 -40
13 -23 73 10 36 18 48 33 48 13 0 20 -7 21 -20 1 -22 42 -114 71 -157 13 -21
15 -30 5 -40 -9 -9 -16 -7 -32 7 -11 10 -20 13 -20 8 0 -17 29 -36 45 -29 23
9 30 36 15 60 -43 67 -70 125 -70 152 0 41 -35 59 -59 31z"/>
<path d="M3356 614 c-16 -16 -9 -45 14 -59 15 -9 50 14 50 33 0 38 -37 53 -64
26z m50 -9 c8 -20 -13 -45 -32 -38 -14 5 -19 34 -7 46 11 12 33 7 39 -8z"/>
<path d="M2830 585 c-44 -19 -55 -28 -55 -46 0 -16 9 -28 27 -37 23 -10 26
-16 17 -30 -8 -12 -6 -26 5 -52 l16 -35 -6 39 c-5 31 -3 42 11 52 16 12 14 14
-21 31 -21 10 -39 23 -41 29 -4 13 113 68 127 59 18 -11 10 -35 -15 -47 l-25
-11 40 -18 c49 -22 51 -44 5 -66 -36 -17 -41 -28 -26 -52 8 -12 16 -13 52 -2
34 10 43 10 50 0 10 -17 -10 -42 -28 -35 -8 3 -12 2 -9 -3 6 -10 -45 -31 -75
-31 -10 0 -22 12 -28 28 l-11 27 6 -30 c8 -45 17 -49 73 -30 69 23 95 45 87
73 -8 24 -30 28 -72 12 -21 -8 -29 -8 -35 2 -6 9 3 19 27 31 29 15 35 23 32
44 -2 14 -12 31 -23 37 -11 6 -22 12 -24 13 -2 1 4 9 13 18 12 12 13 21 6 36
-14 25 -33 24 -100 -6z"/>
<path d="M2625 530 c-36 -14 -48 -36 -37 -67 10 -28 10 -28 11 9 1 34 4 38 39
47 20 6 44 11 53 11 21 0 57 -30 61 -50 2 -8 11 -21 20 -28 25 -19 31 -65 13
-107 -8 -21 -18 -35 -21 -32 -3 3 -15 -3 -26 -13 -28 -26 -68 -34 -85 -17 -8
8 -21 36 -29 63 l-14 49 6 -45 c8 -68 28 -94 69 -87 50 8 103 47 116 85 13 39
5 95 -16 112 -8 7 -15 18 -15 25 0 40 -90 68 -145 45z"/>
<path d="M2445 491 c-47 -20 -75 -85 -47 -113 7 -7 6 -21 -4 -44 -42 -100 97
-158 168 -70 24 29 23 81 -1 105 -11 11 -38 25 -60 31 -41 11 -52 24 -28 33 6
3 3 5 -9 4 -35 -2 -17 -35 25 -47 45 -13 55 -19 70 -48 18 -34 6 -70 -32 -92
-41 -25 -68 -25 -101 1 -32 25 -35 70 -6 99 22 22 25 31 9 28 -20 -5 -34 29
-23 59 11 32 49 49 89 39 21 -5 26 -12 22 -26 -3 -11 -1 -20 4 -20 5 0 9 11 9
25 0 18 -7 28 -26 35 -29 12 -32 12 -59 1z"/>
<path d="M2633 462 c-3 -7 -3 -16 1 -19 3 -4 6 2 7 13 0 12 4 8 10 -11 5 -16
6 -38 3 -49 -4 -11 -2 -16 4 -12 6 3 13 -7 17 -25 9 -41 33 -49 58 -18 15 19
18 33 13 67 -3 24 -12 50 -21 58 -17 18 -85 15 -92 -4z m79 -4 c30 -24 27
-136 -3 -126 -13 4 -50 118 -43 130 7 12 28 10 46 -4z"/>
<path d="M1982 457 c-7 -7 -14 -63 -18 -123 -8 -127 -1 -139 69 -137 49 2 86
27 109 74 19 37 24 94 8 104 -5 3 -7 12 -4 19 3 7 -11 27 -31 45 -28 24 -45
31 -79 31 -24 0 -48 -6 -54 -13z m116 -17 c17 -11 32 -27 32 -37 0 -9 5 -31
12 -49 10 -28 8 -38 -13 -80 -18 -38 -29 -49 -46 -48 -13 0 -23 -2 -23 -6 0
-12 -69 -10 -76 2 -8 13 -6 192 2 221 7 24 70 23 112 -3z"/>
<path d="M2020 336 c6 -92 21 -106 65 -62 50 50 24 149 -38 144 l-32 -2 5 -80z
m64 52 c31 -43 9 -118 -35 -118 -16 0 -19 7 -19 54 0 87 21 111 54 64z"/>
<path d="M2178 459 c-25 -14 -22 -44 5 -62 18 -12 20 -18 10 -28 -19 -19 -17
-153 2 -169 24 -20 142 -4 156 21 16 31 -6 49 -57 49 -36 0 -43 3 -47 23 -4
19 -4 19 -6 -5 -1 -25 2 -27 47 -30 39 -3 47 -6 47 -23 0 -17 -9 -21 -60 -26
-76 -7 -87 3 -83 86 3 53 5 60 27 65 24 5 24 6 -14 38 -50 41 -38 55 47 56 50
1 63 -2 63 -14 0 -9 -13 -17 -34 -20 l-35 -5 38 -28 c43 -34 44 -59 1 -68
l-30 -7 32 -1 c48 -2 61 28 28 67 -24 29 -25 30 -4 35 15 4 20 12 17 29 -3 21
-8 23 -68 25 -36 2 -73 -2 -82 -8z"/>
<path d="M2601 414 c0 -11 3 -14 6 -6 3 7 2 16 -1 19 -3 4 -6 -2 -5 -13z"/>
<path d="M2454 351 c3 -4 2 -21 -3 -38 -8 -27 -6 -29 19 -31 15 -1 33 5 41 14
12 14 9 20 -16 40 -30 24 -51 32 -41 15z m45 -30 c16 -10 6 -31 -14 -31 -17 0
-28 17 -20 30 8 12 16 12 34 1z"/>
<path d="M1510 170 c8 -5 20 -10 25 -10 6 0 3 5 -5 10 -8 5 -19 10 -25 10 -5
0 -3 -5 5 -10z"/>
<path d="M1620 130 c8 -5 22 -9 30 -9 10 0 8 3 -5 9 -27 12 -43 12 -25 0z"/>
<path d="M1685 110 c11 -5 27 -9 35 -9 9 0 8 4 -5 9 -11 5 -27 9 -35 9 -9 0
-8 -4 5 -9z"/>
<path d="M1775 85 c22 -8 51 -13 65 -13 14 0 0 6 -30 13 -69 18 -88 17 -35 0z"/>
</g>
</svg>
