<svg width="409.6" height="409.6" xmlns="http://www.w3.org/2000/svg" xmlns:svg="http://www.w3.org/2000/svg" version="1.1">
  <title>Layer 1</title>
  <rect fill="#264de4" fill-opacity="0.5" height="409.6" id="svg_2" width="409.6" x="0" y="0"/>
  <polygon fill="#264de4" points="338.3 90.4 314 362.9 204.6 393.2 95.6 362.9 71.3 90.4 338.3 90.4"/>
  <polygon fill="#2965f1" points="293.1 345.5 313.9 112.7 204.8 112.7 204.8 370 293.1 345.5" transform="matrix(1 0 0 1 0 0)"/>
  <polygon fill="#ebebeb" points="127 213.8 130 247.2 204.8 247.2 204.8 213.8 127 213.8"/>
  <polygon fill="#ebebeb" points="204.8 146.1 204.7 146.1 121 146.1 124 179.6 204.8 179.6 204.8 146.1"/>
  <polygon fill="#ebebeb" points="204.8 335.4 204.8 300.6 204.7 300.6 167.4 290.6 165.1 263.9 147 263.9 131.5 263.9 136.2 316.4 204.6 335.4 204.8 335.4"/>
  <path d="m134.1,16.4l40.5,0l0,16.9l-23.6,0l0,16.9l23.6,0l0,16.9l-40.5,0l0,-50.7z"/>
  <path d="m182.7,16.4l40.5,0l0,14.7l-23.6,0l0,2.9l23.6,0l0,33.9l-40.5,0l0,-15.5l23.6,0l0,-2.9l-23.6,0l0,-33.1z"/>
  <path d="m231.3,16.4l40.5,0l0,14.7l-23.6,0l0,2.9l23.6,0l0,33.9l-40.5,0l0,-15.5l23.6,0l0,-2.9l-23.6,0l0,-33.1z"/>
  <polygon fill="#ffffff" points="245.8 247.2 242 290.6 204.7 300.6 204.7 335.4 273.2 316.4 273.7 310.7 281.6 222.8 282.4 213.8 288.4 146.1 204.7 146.1 204.7 179.6 251.8 179.6 248.7 213.8 204.7 213.8 204.7 247.2 245.8 247.2" transform="matrix(1 0 0 1 0 0)"/>
</svg>
