<svg xmlns="http://www.w3.org/2000/svg" version="1.1" viewBox="0 0 512 512">
  <rect fill="#e44d26" fill-opacity="0.5" x="0" y="0" width="512" height="512"/>
  <path d="M114.9,20.5h22v21h20.3v-21h22v63.5h-22v-21.2h-20.1v21.2h-22.2M208.2,41.6h-19.4v-21.2h60.9v21.2h-19.5v42.3h-22M259.4,20.5h23l14.2,22.4,14.2-22.4h23v63.5h-22v-31.5l-15.4,22.8-15.4-22.8v31.5h-21.6M344.6,20.5h22v42.5h31.2v21h-53.2"/>
  <path fill="#e44d26" d="M114.1,453.8l-31.5-340.7h346.8l-31.5,340.6-142.1,37.9"/>
  <path fill="#f16529" d="M256,462.5V141h141.8l-27.1,290.7"/>
  <path fill="#ebebeb" d="M147,182.7h109v41.8h-61.4l4,42.8h57.4v41.7h-97.1M160.8,329.9h43.6l3.1,33.4,48.6,12.5v43.6l-89.1-23.9"/>
  <path fill="#ffffff" d="M364.6,182.7h-108.8v41.8h104.8M356.7,267.2h-100.9v41.8h53.5l-5.1,54.3-48.5,12.5v43.4l88.9-23.7"/>
</svg>
